<svg id="Layer_1_1_" enable-background="new 0 0 64 64" height="512" viewBox="0 0 64 64" width="512" xmlns="http://www.w3.org/2000/svg"><path d="m51.083 37.083-2.083-18.083h-34l-2.07 17.977-2.11 17.297c-.436 3.575 2.354 6.726 5.956 6.726h29.724c3.503 0 6.261-2.988 5.981-6.479z" fill="#63c1ff"/><path d="m37 8h4v12h-4z" fill="#dfdfdf"/><path d="m23 27.997v-3.997c-.552 0-1-.448-1-1v-2c0-.552.448-1 1-1v-12h-1.253c-1.655 0-3.139 1.019-3.733 2.564l-2.435 6.332c-.986 2.562-.618 5.448.977 7.682 1.494 2.092 3.882 3.355 6.444 3.419z" fill="#4398d1"/><path d="m28 21v2c0 .552-.448 1-1 1v4h10v-4c-.552 0-1-.448-1-1v-2c0-.552.448-1 1-1v-12h-10v12c.552 0 1 .448 1 1z" fill="#4398d1"/><path d="m23 8h4v12h-4z" fill="#dfdfdf"/><path d="m42 21v2c0 .552-.448 1-1 1v3.997c2.562-.064 4.95-1.328 6.444-3.419 1.596-2.234 1.963-5.12.977-7.682l-2.435-6.332c-.594-1.545-2.078-2.564-3.733-2.564h-1.253v12c.552 0 1 .448 1 1z" fill="#4398d1"/><path d="m28 23v-2c0-.552-.448-1-1-1h-4c-.552 0-1 .448-1 1v2c0 .552.448 1 1 1h4c.552 0 1-.448 1-1z" fill="#bebebe"/><path d="m42 23v-2c0-.552-.448-1-1-1h-4c-.552 0-1 .448-1 1v2c0 .552.448 1 1 1h4c.552 0 1-.448 1-1z" fill="#bebebe"/><path d="m38 39h-12c-1.657 0-3 1.343-3 3v12c0 1.657 1.343 3 3 3h12c1.657 0 3-1.343 3-3v-11-1c0-1.657-1.343-3-3-3z" fill="#4398d1"/><path d="m48.812 21.329c-.216 1.153-.665 2.265-1.368 3.249-1.494 2.092-3.882 3.355-6.444 3.419v2.003l-2 2-2-2v-2h-10v2l-2 2-2-2v-2.003c-2.562-.064-4.95-1.328-6.444-3.419-.702-.983-1.152-2.096-1.368-3.249-.404 2.164.064 4.423 1.368 6.249 1.095 1.533 2.672 2.615 4.444 3.112v3.31l4 4 4-4v-3h6v3l4 4 4-4v-3.31c1.772-.497 3.349-1.579 4.444-3.112 1.304-1.825 1.772-4.085 1.368-6.249z" fill="#5cb3ed"/><path d="m23 24v3.997 5.003l2 2 2-2v-5-4z" fill="#dfdfdf"/><path d="m37 24v4 5l2 2 2-2v-5.003-3.997z" fill="#dfdfdf"/><path d="m52.316 52.47c-.652 2.585-2.991 4.53-5.816 4.53h-29.724c-2.763 0-5.042-1.857-5.76-4.334l-.196 1.608c-.436 3.575 2.354 6.726 5.956 6.726h29.724c3.503 0 6.261-2.988 5.981-6.479z" fill="#5cb3ed"/><path d="m5.112 54.834.714.535c1.389 1.042 3.144 1.47 4.856 1.184.224-.037.44-.096.651-.164 1.638-.535 2.844-1.98 3.039-3.732l1.628-14.657-3.07-1.023-2.93-.977-6.25 13.394c-.481 1.031-.549 2.208-.189 3.288.286.858.827 1.609 1.551 2.152z" fill="#4398d1"/><path d="m49.961 52.656c.22 1.978 1.727 3.57 3.69 3.897 1.713.285 3.467-.143 4.856-1.184l.714-.535c.724-.543 1.265-1.294 1.551-2.152.36-1.08.292-2.257-.189-3.288l-6.251-13.394-3.249 1.083-2.751.917z" fill="#4398d1"/><path d="m4.512 55.634.713.536c1.278.958 2.841 1.469 4.424 1.469.372 0 .745-.034 1.116-.092 1.34 2.69 4.097 4.453 7.14 4.453h28.189c3.084 0 5.85-1.785 7.177-4.515.073.015.141.042.215.055.397.066.798.099 1.197.099 1.582 0 3.146-.511 4.422-1.469l.714-.536c.891-.668 1.547-1.58 1.899-2.636.443-1.328.361-2.758-.231-4.027l-6.25-13.394c-.215-.46-.741-.686-1.223-.526l-2.088.696-1.935-15.868-.024.003c.006-1.126-.196-2.26-.613-3.345l-2.436-6.332c-.736-1.917-2.611-3.205-4.665-3.205h-4.343c-.479-2.833-2.943-5-5.91-5s-5.431 2.167-5.91 5h-4.343c-2.054 0-3.929 1.288-4.667 3.205l-2.435 6.332c-.418 1.086-.619 2.219-.614 3.345l-.025-.003-1.922 15.762-1.769-.59c-.485-.16-1.007.066-1.223.526l-6.25 13.394c-.592 1.269-.674 2.699-.231 4.027.353 1.057 1.01 1.968 1.901 2.636zm55.164-5.818c.375.804.427 1.708.146 2.549-.223.669-.639 1.246-1.202 1.668l-.714.536c-1.165.874-2.657 1.237-4.091.998-1.515-.252-2.691-1.495-2.861-3.021l-1.54-13.853 4.388-1.462zm-14.623-38.893 2.435 6.332c.868 2.256.547 4.776-.858 6.743-1.1 1.541-2.783 2.572-4.63 2.891v-2.166c.595-.347 1-.985 1-1.722v-2c0-.737-.405-1.375-1-1.722v-10.279h.253c1.232 0 2.357.773 2.8 1.923zm-9.053 16.077h-8v-2.278c.595-.347 1-.985 1-1.722v-2c0-.737-.405-1.375-1-1.722v-10.278h8v10.278c-.595.347-1 .985-1 1.722v2c0 .737.405 1.375 1 1.722zm-13-3.999v-2.001h4v2zm3-4.001h-2v-10h2zm-2 6h2v7.586l-1 1-1-1zm13-1.999v-2.001h4v2zm3-4.001h-2v-10h2zm-2 6h2v7.586l-1 1-1-1zm-6-21c1.858 0 3.411 1.28 3.858 3h-7.716c.447-1.72 2-3 3.858-3zm-15.488 13.254 2.435-6.332c.443-1.149 1.568-1.922 2.8-1.922h.253v10.278c-.595.347-1 .985-1 1.722v2c0 .737.405 1.375 1 1.722v2.166c-1.847-.319-3.53-1.35-4.63-2.892-1.405-1.965-1.726-4.486-.858-6.742zm-1.074 7.418c.102.163.192.33.304.487 1.474 2.064 3.764 3.421 6.258 3.756v4.085c0 .265.105.52.293.707l2 2c.195.195.451.293.707.293s.512-.098.707-.293l2-2c.188-.187.293-.442.293-.707v-4h8v4c0 .265.105.52.293.707l2 2c.195.195.451.293.707.293s.512-.098.707-.293l2-2c.188-.187.293-.442.293-.707v-4.085c2.493-.334 4.784-1.691 6.257-3.755.113-.158.203-.325.305-.488l1.43 11.721-1.976.659c-.447.149-.729.59-.677 1.059l1.629 14.656c.183 1.653 1.124 3.081 2.463 3.953-1.015 1.989-3.063 3.28-5.336 3.28h-28.19c-2.199 0-4.21-1.223-5.253-3.118 1.474-.849 2.518-2.359 2.713-4.115l1.628-14.656c.052-.469-.23-.91-.677-1.059l-2.295-.765zm-10.782 25.144 5.874-12.586 4.388 1.462-1.539 13.853c-.17 1.526-1.346 2.769-2.86 3.021-1.439.238-2.928-.125-4.092-.998l-.713-.536c-.564-.422-.98-1-1.203-1.668-.282-.839-.23-1.744.145-2.548z"/><path d="m26 58h12c2.206 0 4-1.794 4-4v-8l1.2 1.6 1.6-1.2-2.8-3.733v-.667c0-2.206-1.794-4-4-4h-12c-2.206 0-4 1.794-4 4v12c0 2.206 1.794 4 4 4zm-2-16c0-1.103.897-2 2-2h12c1.103 0 2 .897 2 2v12c0 1.103-.897 2-2 2h-12c-1.103 0-2-.897-2-2z"/><path d="m26 43h12v2h-12z"/></svg>