<svg id="Layer_1_1_" enable-background="new 0 0 64 64" height="512" viewBox="0 0 64 64" width="512" xmlns="http://www.w3.org/2000/svg"><path d="m56 3h-33c-2.761 0-5 2.239-5 5v48c0 3-2 5-5 5h38v-53c0-2.761 2.239-5 5-5z" fill="#ffecc7"/><path d="m56 3c-2.761 0-5 2.239-5 5v5h5c2.761 0 5-2.239 5-5s-2.239-5-5-5z" fill="#d1c2a3"/><path d="m8 56c0 2.761 2.239 5 5 5 3 0 5-2 5-5v-5h-5c-2.761 0-5 2.239-5 5z" fill="#d1c2a3"/><path d="m22.607 29.739c-1.127-3.115-2.597-6.137-4.673-8.718-2.423-3.012-5.636-5.16-9.325-6.295-3.803-1.17-5.094 2.885-4.308 5.806 1.529 5.683 4.125 10.941 7.026 16.022 1.837 3.217 5.664 9.652 10.267 7.592.065-.029.128-.042.192-.074 4.787-2.381 2.162-10.627.821-14.333z" fill="#4398d1"/><path d="m14.179 61h26.821" fill="#707070"/><path d="m48 44h-7v4h-3v13h13v-17z" fill="#d1c2a3"/><path d="m44 48h14v-4h-7-7z" fill="#707070"/><path d="m41 48v13h20v-13h-3-14z" fill="#707070"/><path d="m53 48v-4h-9v4h-3v13h6.857v-13z" fill="#545454"/><path d="m56 14c3.309 0 6-2.691 6-6s-2.691-6-6-6h-33c-3.309 0-6 2.691-6 6l-.002 10.536c-2.267-2.184-5.02-3.82-8.095-4.766-1.67-.515-3.183-.222-4.262.819-1.622 1.565-1.814 4.312-1.307 6.202 1.706 6.341 4.703 12.019 7.123 16.258 1.112 1.947 3.449 6.021 6.543 7.729v5.222h-4c-3.309 0-6 2.691-6 6s2.691 6 6 6c.408 0 .801-.036 1.179-.1v.1h26.821 20c.553 0 1-.448 1-1v-13c0-.552-.447-1-1-1h-2v-3c0-.552-.447-1-1-1h-6v-29zm4-6c0 2.206-1.794 4-4 4h-4v-4c0-2.43 1.57-4 4-4 2.206 0 4 1.794 4 4zm-47.807 28.058c-2.36-4.135-5.281-9.665-6.928-15.786-.427-1.587-.099-3.412.764-4.243.354-.342.786-.512 1.308-.512.296 0 .621.055.978.164 3.513 1.081 6.57 3.145 8.84 5.967 1.787 2.221 3.263 4.979 4.512 8.431 2.255 6.232 2.463 10.465.636 12.385-.102-.539-.208-1.089-.322-1.66-2.032-10.159-13.749-22.943-14.247-23.482l-1.469 1.356c.117.128 11.831 12.905 13.754 22.518.159.794.3 1.544.435 2.275-3.165.652-6.049-3.543-8.261-7.413zm-3.193 19.942c0-2.206 1.794-4 4-4h4v4c0 2.43-1.57 4-4 4-2.206 0-4-1.794-4-4zm51 4h-18v-11h18zm-3-13h-12v-2h12zm-13-4c-.553 0-1 .448-1 1v3h-2c-.553 0-1 .448-1 1v12h-22.383c.877-1.031 1.383-2.406 1.383-4v-10.498c.262.042.528.066.798.066.33 0 .666-.041 1.007-.11 1.169 6.94 1.195 10.501 1.195 10.542h2c0-.179-.021-3.918-1.296-11.309 3.457-2.13 3.747-7.265.843-15.293-.173-.479-.351-.944-.533-1.398h23.986v-2h-24.859c-.931-1.985-1.973-3.717-3.144-5.234l.003-12.766c0-2.206 1.794-4 4-4h28.383c-.877 1.031-1.383 2.406-1.383 4v26h-1.764l-1.789-.895c-.138-.069-.292-.105-.447-.105h-5v2h4.764l1.789.895c.138.069.292.105.447.105h2v2h-3v2h3v3z"/><path d="m22 9h12v2h-12z"/><path d="m22 14h25v2h-25z"/><path d="m22 18h25v2h-25z"/><path d="m22 22h25v2h-25z"/><path d="m43 38h2v2h-2z"/></svg>