<svg id="Layer_1_1_" enable-background="new 0 0 64 64" height="512" viewBox="0 0 64 64" width="512" xmlns="http://www.w3.org/2000/svg"><path d="m55 9c-5.303 0-10.576.799-15.641 2.371l-12.764 3.961c-5.697 1.769-11.629 2.668-17.595 2.668-3.314 0-6-2.686-6-6v38c0 3.314 2.686 6 6 6 5.966 0 11.898-.899 17.596-2.668l12.764-3.961c3.468-1.076 7.034-1.79 10.641-2.134v-26.237h5c3.314 0 6-2.686 6-6s-2.687-6-6.001-6z" fill="#ffecc7"/><path d="m55 21h-5v26.237 11.763c6.075 0 11-4.925 11-11v-33c0 3.314-2.686 6-6 6z" fill="#fdd995"/><path d="m21 37c0-2.034-5.973-1.77-9.822-1.389-1.94.192-3.605 1.455-4.329 3.265l-.221.552c-.409 1.022-.485 2.147-.218 3.214.376 1.503 1.391 2.76 2.784 3.436 2.594 1.26 6.809 3.256 8.806 3.922 3 1 8-3 8-6s-5-4-5-7z" fill="#88b337"/><ellipse cx="36" cy="42" fill="#8c421c" rx="4" ry="2"/><path d="m31.5 30c1.1 0 2.07-.444 2.711-1.124 1.034.702 2.352 1.124 3.789 1.124 3.314 0 6-2.239 6-5s-2.686-5-6-5c-2.925 0-5.358 1.745-5.889 4.053-.199-.03-.402-.053-.611-.053-1.933 0-3.5 1.343-3.5 3s1.567 3 3.5 3z" fill="#4398d1"/><path d="m15 18v-12h-6c-3.314 0-6 2.686-6 6 0 3.314 2.686 6 6 6z" fill="#fdd995"/><path d="m47 21h3v26.237h-3z" fill="#f2e0bd"/><path d="m55 9c-.75 0-1.499.02-2.248.052 2.958.371 5.248 2.89 5.248 5.948 0 3.314-2.686 6-6 6h3c3.314 0 6-2.686 6-6s-2.686-6-6-6z" fill="#f2e0bd"/><path d="m55 8c-5.409 0-10.771.813-15.938 2.416l-12.762 3.961c-5.61 1.741-11.43 2.623-17.3 2.623-2.757 0-5-2.243-5-5s2.243-5 5-5h5v7h2v-8c0-.552-.447-1-1-1h-6c-3.859 0-7 3.14-7 7v38c0 3.86 3.141 7 7 7 6.071 0 12.092-.913 17.893-2.712l12.763-3.961c3.042-.944 6.182-1.591 9.345-1.96v10.633c0 .552.447 1 1 1 6.617 0 12-5.383 12-12v-33c-.001-3.86-3.142-7-7.001-7zm5 40c0 5.176-3.954 9.447-9 9.95v-35.95h4c1.957 0 3.729-.807 5-2.105zm-5-28h-5c-.553 0-1 .448-1 1v25.352c-3.364.378-6.703 1.061-9.938 2.064l-12.762 3.961c-5.61 1.741-11.43 2.623-17.3 2.623-2.757 0-5-2.243-5-5v-33.111c1.272 1.301 3.042 2.111 5 2.111 6.071 0 12.092-.913 17.893-2.712l12.764-3.961c4.972-1.544 10.135-2.327 15.343-2.327 2.757 0 5 2.243 5 5s-2.243 5-5 5z"/><path d="m24.125 39.719c-1.141-.912-2.125-1.699-2.125-2.719 0-.57-.235-1.084-.68-1.487-.471-.426-1.901-1.722-10.24-.897-2.314.229-4.292 1.719-5.159 3.889l-.221.552c-.49 1.224-.58 2.548-.261 3.828h.001c.449 1.796 1.658 3.288 3.317 4.093 2.977 1.446 6.94 3.309 8.926 3.971.409.136.854.203 1.322.203 1.376 0 2.957-.576 4.453-1.654 1.713-1.234 3.542-3.326 3.542-5.498 0-1.98-1.527-3.203-2.875-4.281zm-1.836 8.157c-1.464 1.054-2.984 1.504-3.973 1.175-1.982-.661-6.292-2.71-8.685-3.873-1.125-.545-1.945-1.558-2.251-2.778-.217-.87-.155-1.769.178-2.6l.221-.552c.589-1.474 1.93-2.486 3.499-2.641 6.547-.649 8.522.085 8.722.393 0 1.98 1.527 3.203 2.875 4.281 1.141.912 2.125 1.699 2.125 2.719 0 1.132-1.114 2.726-2.711 3.876z"/><path d="m36 39c-2.851 0-5 1.29-5 3s2.149 3 5 3 5-1.29 5-3-2.149-3-5-3zm0 4c-1.936 0-3-.751-3-1s1.064-1 3-1 3 .751 3 1-1.064 1-3 1z"/><path d="m39.874 33.961h2v2h-2z" transform="matrix(.983 -.185 .185 .983 -5.75 8.144)"/><path d="m38.108 36.497-.367-1.966c-.613.115-1.24.194-1.865.235l.133 1.995c.703-.046 1.409-.135 2.099-.264z"/><path d="m33.995 34.781c-.625-.032-1.254-.102-1.87-.207l-.336 1.972c.692.118 1.4.196 2.104.232z"/><path d="m43.806 33.224h2v2h-2z" transform="matrix(.983 -.185 .185 .983 -5.547 8.857)"/><path d="m23.708 30.401c-.562-.425-1.154-.82-1.76-1.176l-1.012 1.726c.539.316 1.065.667 1.564 1.045z"/><path d="m16.021 27.037c-.692-.124-1.398-.208-2.102-.25l-.119 1.996c.624.038 1.253.112 1.867.223z"/><path d="m11.919 28.781-.117-1.997c-.703.041-1.411.124-2.102.247l.35 1.969c.614-.109 1.242-.183 1.869-.219z"/><path d="m5.965 27.737h2v2h-2z" transform="matrix(.965 -.263 .263 .965 -7.305 2.839)"/><path d="m20.063 28.265c-.645-.282-1.312-.528-1.984-.733l-.582 1.914c.599.182 1.192.4 1.764.651z"/><path d="m27.736 35.354c.646.276 1.317.517 1.992.715l.564-1.918c-.6-.177-1.196-.391-1.771-.637z"/><path d="m26.838 32.673c-.542-.311-1.071-.658-1.573-1.031l-1.193 1.605c.565.42 1.161.811 1.771 1.16z"/><path d="m47.293 14.293-2.293 2.293-2.293-2.293-1.414 1.414 2.293 2.293-1.906 1.906c-1.071-.571-2.329-.906-3.68-.906-2.994 0-5.628 1.639-6.6 4.001-2.435.047-4.4 1.823-4.4 3.999 0 2.206 2.019 4 4.5 4 1.033 0 2.022-.319 2.817-.894 1.103.587 2.361.894 3.683.894 3.859 0 7-2.691 7-6 0-1.488-.639-2.848-1.689-3.897l1.689-1.689 2.293 2.293 1.414-1.414-2.293-2.293 2.293-2.293zm-9.293 14.707c-1.178 0-2.324-.338-3.227-.952-.172-.116-.367-.173-.563-.173-.268 0-.532.107-.728.314-.484.516-1.207.811-1.982.811-1.379 0-2.5-.897-2.5-2s1.121-2 2.5-2c.157 0 .311.019.461.042.517.077 1.008-.255 1.125-.765.436-1.899 2.504-3.277 4.914-3.277 2.757 0 5 1.794 5 4s-2.243 4-5 4z"/></svg>