<svg id="Layer_1_1_" enable-background="new 0 0 64 64" height="512" viewBox="0 0 64 64" width="512" xmlns="http://www.w3.org/2000/svg"><path d="m9 61h42v-26.512c-.885-.781-1.549-1.817-1.835-3.061-.45-1.951.053-3.794 1.135-5.156.893-1.124.927-2.707.167-3.924-.858-1.374-.655-3.158.491-4.304l.042-.043v-3h-2-4-36c-3.314 0-6-2.686-6-6v46c0 3.314 2.686 6 6 6z" fill="#8c421c"/><path d="m50.466 22.347c-.858-1.374-.655-3.158.491-4.304l.043-.043v-3h-4c-6 36-19 43-43.142 43.08 1.048 1.747 2.956 2.92 5.142 2.92h42v-26.512c-.885-.781-1.549-1.817-1.835-3.061-.45-1.951.053-3.794 1.135-5.156.892-1.124.926-2.707.166-3.924z" fill="#7d3b19"/><circle cx="27" cy="38" fill="#fdd995" r="16"/><path d="m35.285 37.759c1.184-.9 1.473-2.502.81-3.759h-5.095l-4-9-4 9h-8l6 6-3 8 9-4 2.296 1.02c1.508-3.355 4.04-5.779 5.989-7.261z" fill="#f74f2e"/><path d="m9 3c-3.314 0-6 2.686-6 6s2.686 6 6 6h40v-12z" fill="#7d3b19"/><path d="m44.252 45.129c-1.152-.959-.936-2.787.405-3.458 1.775-.887 2.371-3.13 1.27-4.781l-1.888-2.833c-2.563-3.842-3.308-8.616-2.039-13.057l-4.343 2.171c-.748.374-1.384.868-1.909 1.441-2.183 2.387-2.373 6.184-.061 8.786.166.187.296.39.408.601.663 1.257.374 2.859-.81 3.759-1.949 1.482-4.481 3.907-5.99 7.261-.783 1.744-1.295 3.733-1.295 5.981 0 5.526 4.482 10.005 10.009 10 3.159-.003 6.087-1.737 7.847-4.361 4.34-6.471 1.201-9.176-1.604-11.51z" fill="#fdb62f"/><path d="m57.749 22.76c-1.256-.774-1.631-2.25-.746-3.431l.035-.047c.584-.778.627-1.818.119-2.631l-4.157-6.651v4.559c0 .923-.367 1.808-1.019 2.46l-.981.981-.043.043c-1.145 1.145-1.349 2.93-.491 4.304.76 1.217.726 2.8-.167 3.924-1.082 1.362-1.584 3.205-1.135 5.156.287 1.244.951 2.281 1.835 3.061 1.13.997 2.629 1.567 4.259 1.507 6.817-.249 7.166-10.353 2.491-13.235z" fill="#fdb62f"/><path d="m9 7h36v8h-36z" fill="#fdd995"/><path d="m39 32c1 4 4 5 3 8s-3 6 0 8c2.105 1.403 2.24 7.235 2.134 10.591.648-.573 1.234-1.224 1.722-1.952 4.34-6.472 1.201-9.176-1.604-11.51-1.152-.959-.936-2.787.405-3.458 1.775-.887 2.371-3.13 1.27-4.781l-1.888-2.833c-2.563-3.842-3.308-8.616-2.039-13.057 0 0-4 7-3 11z" fill="#e0a12a"/><path d="m58 29c0 2.521-1.421 5.739-4.839 6.705.659.21 1.364.317 2.098.29 6.815-.25 7.164-10.354 2.49-13.235-1.256-.774-1.631-2.25-.746-3.431l.035-.047c.584-.778.627-1.818.119-2.631l-4.157-6.651s1 6 1 9 4 7 4 10z" fill="#e0a12a"/><path d="m9 62h29 .01 12.99c.553 0 1-.448 1-1v-24.677c.917.424 1.933.677 3.017.677.092 0 .186-.001.278-.005 3.09-.113 5.433-2.073 6.269-5.243 1.012-3.833-.403-8.064-3.29-9.843-.4-.248-.661-.595-.734-.977-.064-.34.027-.687.299-1.049.834-1.112.9-2.588.167-3.762l-4.158-6.651c-.235-.378-.697-.552-1.123-.431-.429.123-.725.515-.725.961v4.559c0 .101-.017.199-.029.297-.072-.481-.469-.856-.971-.856h-1v-11c0-.552-.447-1-1-1h-40c-3.859 0-7 3.14-7 7v46c0 3.86 3.141 7 7 7zm29-2c-2.402 0-4.661-.935-6.361-2.633-1.701-1.7-2.639-3.962-2.639-6.367 0-5.955 3.747-10.055 6.891-12.445.872-.664 1.434-1.671 1.54-2.767.108-1.108-.255-2.222-.996-3.055-1.158-1.303-1.634-3.033-1.304-4.746s1.414-3.143 2.974-3.922l2.477-1.238c-.62 4.095.297 8.292 2.625 11.785l1.889 2.833c.365.548.479 1.229.309 1.866-.169.637-.604 1.171-1.193 1.466-.935.467-1.564 1.365-1.685 2.403-.12 1.036.286 2.051 1.087 2.717 2.721 2.265 5.29 4.403 1.413 10.185-1.644 2.451-4.268 3.915-7.018 3.917h-.009zm-10.814-7.009c-.063.001-.123.009-.186.009-8.271 0-15-6.729-15-15s6.729-15 15-15c2.558 0 5.052.651 7.277 1.891-.533.813-.919 1.728-1.11 2.719-.364 1.891.004 3.791.995 5.39h-2.513l-3.735-8.406c-.161-.361-.518-.594-.914-.594s-.753.233-.914.594l-3.735 8.406h-7.351c-.404 0-.77.244-.924.617-.155.374-.069.804.217 1.09l5.545 5.545-2.774 7.397c-.142.377-.043.803.251 1.079.189.178.435.272.685.272.138 0 .275-.028.406-.086l8.594-3.82 1.008.448c-.615 1.628-1.008 3.443-1.008 5.458 0 .675.068 1.34.186 1.991zm8.254-17.396c-.054.55-.323 1.036-.761 1.368-1.74 1.323-4.191 3.589-5.853 6.755l-1.42-.631c-.258-.115-.555-.115-.813 0l-6.819 3.031 2.162-5.766c.138-.367.048-.781-.229-1.058l-4.293-4.294h5.586c.396 0 .753-.233.914-.594l3.086-6.944 3.086 6.944c.161.361.518.594.914.594h4.4c.039.193.06.391.04.595zm17.248-17.868c.846-.846 1.312-1.971 1.312-3.168v-1.072l2.31 3.694c.291.466.263 1.056-.106 1.549-.575.767-.799 1.682-.629 2.575.179.942.765 1.761 1.65 2.307 2.131 1.314 3.188 4.666 2.405 7.631-.357 1.355-1.405 3.644-4.407 3.754-2.495.092-4.548-1.47-5.083-3.793-.354-1.537-.012-3.108.942-4.31 1.139-1.435 1.232-3.474.231-5.076-.614-.984-.471-2.245.351-3.067zm-43.688-13.727h39v10h-2v-7c0-.552-.447-1-1-1h-36v2h35v6h-35c-2.757 0-5-2.243-5-5s2.243-5 5-5zm-5 9.889c1.272 1.301 3.042 2.111 5 2.111h40 1v1.633c-1.246 1.479-1.424 3.577-.382 5.244.553.885.512 1.999-.103 2.772-1.334 1.681-1.817 3.869-1.325 6.002.297 1.289.942 2.398 1.81 3.276v25.073h-6c1.027-.751 1.941-1.693 2.685-2.803 4.883-7.279.865-10.624-1.794-12.836-.283-.236-.422-.583-.379-.95.042-.371.258-.678.592-.845 1.103-.552 1.916-1.551 2.232-2.742s.105-2.463-.578-3.488l-1.889-2.833c-2.403-3.605-3.099-8.062-1.908-12.228.108-.381-.019-.791-.323-1.044-.307-.253-.732-.302-1.086-.125l-4.343 2.171c-.589.294-1.122.663-1.603 1.083-2.611-1.54-5.566-2.36-8.606-2.36-9.374 0-17 7.626-17 17s7.626 17 17 17c.238 0 .486-.007.749-.021.546 1.408 1.376 2.703 2.477 3.802.455.455.948.856 1.463 1.219h-22.689c-2.757 0-5-2.243-5-5z"/><path d="m9 10h33v2h-33z"/><path d="m33 51c0-1.232.452-2.416 1.273-3.333l-1.49-1.334c-1.15 1.285-1.783 2.942-1.783 4.667 0 3.86 3.141 7 7 7v-2c-2.757 0-5-2.243-5-5z"/><path d="m34.586 43h2.828v2h-2.828z" transform="matrix(.707 -.707 .707 .707 -20.569 38.343)"/><path d="m56 8h2v4h-2z"/><path d="m53 2h2v3h-2z"/><path d="m59 2h2v4h-2z"/></svg>